<svg width="31" height="25" viewBox="0 0 31 25" fill="none" xmlns="http://www.w3.org/2000/svg">
<path d="M13.4408 0.0309696C6.02917 0.0309696 0 4.8932 0 10.8703C0 16.8475 6.02917 21.7097 13.4408 21.7097C15.7066 21.7097 17.9339 21.2761 19.8156 20.44C19.9663 20.5862 20.1334 20.721 20.3148 20.8426L24.1551 23.9395C24.5097 24.2613 24.9421 24.5212 25.4257 24.7034C25.9094 24.8855 26.4341 24.986 26.9677 24.9986C27.5013 25.0113 28.0324 24.9359 28.5285 24.777C29.0247 24.6181 29.4753 24.3792 29.8527 24.0748C30.2302 23.7704 30.5265 23.407 30.7235 23.0069C30.9205 22.6068 31.014 22.1784 30.9983 21.7481C30.9826 21.3179 30.858 20.8947 30.6322 20.5046C30.4063 20.1146 30.084 19.7659 29.685 19.4799L25.8448 16.3829C25.6577 16.232 25.4518 16.0971 25.2303 15.9803C26.2672 14.4628 26.92 12.6975 26.92 10.8394C26.92 4.86223 20.8909 0 13.4792 0L13.4408 0.0309696ZM13.4408 3.12793C18.7787 3.12793 23.0414 6.56556 23.0414 10.8703C23.0414 12.9143 22.1197 14.8035 20.5068 16.1971C20.4684 16.2281 20.43 16.2591 20.3916 16.29C20.2103 16.4116 20.0431 16.5463 19.8924 16.6926C18.2027 17.9314 15.8986 18.6437 13.4024 18.6437C8.06449 18.6437 3.80183 15.2061 3.80183 10.9013C3.80183 6.59653 8.06449 3.1589 13.4024 3.1589L13.4408 3.12793Z" fill="white"/>
</svg>
