<svg width="30" height="29" viewBox="0 0 30 29" fill="none" xmlns="http://www.w3.org/2000/svg">
<path d="M1.59915 0.00956044C1.10178 0.109528 0.65639 0.453603 0.360966 0.966091C0.0655414 1.47858 -0.0557188 2.1175 0.0238608 2.7423C0.10344 3.3671 0.377341 3.9266 0.785308 4.29771C1.19327 4.66882 1.70189 4.82115 2.19926 4.72118H7.8253L8.16286 5.89909L9.70064 11.7886L11.2384 17.6781C11.3885 18.2907 12.0261 18.8561 12.5137 18.8561H25.6411C26.1662 18.8561 26.7663 18.2907 26.9163 17.6781L29.9544 5.89909C30.1044 5.28658 29.8794 4.72118 29.3543 4.72118H12.7012L11.2759 1.32881C11.1241 0.939443 10.8897 0.610248 10.5986 0.377479C10.3074 0.144711 9.97071 0.0173983 9.62563 0.00956044L2.12425 0.00956044C2.01196 -0.00318681 1.89898 -0.00318681 1.78669 0.00956044C1.71174 0.00390139 1.63659 0.00390139 1.56164 0.00956044L1.59915 0.00956044ZM13.4513 23.5677C12.4011 23.5677 11.576 24.6042 11.576 25.9235C11.576 27.2427 12.4011 28.2793 13.4513 28.2793C14.5015 28.2793 15.3267 27.2427 15.3267 25.9235C15.3267 24.6042 14.5015 23.5677 13.4513 23.5677ZM24.7034 23.5677C23.6532 23.5677 22.8281 24.6042 22.8281 25.9235C22.8281 27.2427 23.6532 28.2793 24.7034 28.2793C25.7536 28.2793 26.5788 27.2427 26.5788 25.9235C26.5788 24.6042 25.7536 23.5677 24.7034 23.5677Z" fill="white"/>
</svg>
