<svg width="30" height="25" viewBox="0 0 30 25" fill="none" xmlns="http://www.w3.org/2000/svg">
<path d="M1.59915 0.0084518C1.10178 0.0968274 0.65639 0.401003 0.360966 0.854062C0.0655414 1.30712 -0.0557188 1.87195 0.0238608 2.4243C0.10344 2.97665 0.377341 3.47127 0.785308 3.79934C1.19327 4.12742 1.70189 4.26208 2.19926 4.17371H7.8253L8.16286 5.21502L9.70064 10.4216L11.2384 15.6282C11.3885 16.1697 12.0261 16.6695 12.5137 16.6695H25.6411C26.1662 16.6695 26.7663 16.1697 26.9163 15.6282L29.9544 5.21502C30.1044 4.67354 29.8794 4.17371 29.3543 4.17371H12.7012L11.2759 1.17472C11.1241 0.830504 10.8897 0.539483 10.5986 0.333707C10.3074 0.12793 9.97071 0.0153808 9.62563 0.0084518L2.12425 0.0084518C2.01196 -0.00281727 1.89898 -0.00281727 1.78669 0.0084518C1.71174 0.00344898 1.63659 0.00344898 1.56164 0.0084518L1.59915 0.0084518ZM13.4513 20.8347C12.4011 20.8347 11.576 21.7511 11.576 22.9174C11.576 24.0836 12.4011 25 13.4513 25C14.5015 25 15.3267 24.0836 15.3267 22.9174C15.3267 21.7511 14.5015 20.8347 13.4513 20.8347ZM24.7034 20.8347C23.6532 20.8347 22.8281 21.7511 22.8281 22.9174C22.8281 24.0836 23.6532 25 24.7034 25C25.7536 25 26.5788 24.0836 26.5788 22.9174C26.5788 21.7511 25.7536 20.8347 24.7034 20.8347Z" fill="white"/>
</svg>
