<svg width="33" height="27" viewBox="0 0 33 27" fill="none" xmlns="http://www.w3.org/2000/svg">
<path d="M1.75907 0.00912794C1.21196 0.104574 0.722029 0.433083 0.397062 0.922387C0.0720955 1.41169 -0.0612907 2.02171 0.0262468 2.61825C0.113784 3.21478 0.415075 3.74897 0.863839 4.10329C1.3126 4.45762 1.87208 4.60305 2.41919 4.50761H8.60783L8.97915 5.63223L10.6707 11.2553L12.3623 16.8784C12.5273 17.4632 13.2287 18.003 13.765 18.003H28.2052C28.7828 18.003 29.4429 17.4632 29.6079 16.8784L32.9498 5.63223C33.1148 5.04742 32.8673 4.50761 32.2897 4.50761H13.9713L12.4035 1.2687C12.2365 0.896945 11.9787 0.582642 11.6584 0.360403C11.3381 0.138165 10.9678 0.0166112 10.5882 0.00912794L2.33667 0.00912794C2.21315 -0.00304265 2.08888 -0.00304265 1.96535 0.00912794C1.88291 0.0037249 1.80025 0.0037249 1.71781 0.00912794L1.75907 0.00912794ZM14.7965 22.5015C13.6413 22.5015 12.7336 23.4912 12.7336 24.7508C12.7336 26.0103 13.6413 27 14.7965 27C15.9517 27 16.8593 26.0103 16.8593 24.7508C16.8593 23.4912 15.9517 22.5015 14.7965 22.5015ZM27.1737 22.5015C26.0185 22.5015 25.1109 23.4912 25.1109 24.7508C25.1109 26.0103 26.0185 27 27.1737 27C28.329 27 29.2366 26.0103 29.2366 24.7508C29.2366 23.4912 28.329 22.5015 27.1737 22.5015Z" fill="white"/>
</svg>
