<svg width="27" height="24" viewBox="0 0 27 24" fill="none" xmlns="http://www.w3.org/2000/svg">
<path d="M11.7065 0.0295832C5.25121 0.0295832 0 4.67415 0 10.3837C0 16.0933 5.25121 20.7379 11.7065 20.7379C13.6799 20.7379 15.6198 20.3237 17.2588 19.5249C17.39 19.6647 17.5356 19.7934 17.6936 19.9095L21.0383 22.8678C21.3471 23.1752 21.7237 23.4235 22.145 23.5975C22.5663 23.7715 23.0233 23.8675 23.488 23.8796C23.9527 23.8917 24.4153 23.8196 24.8474 23.6679C25.2795 23.5161 25.672 23.2878 26.0008 22.9971C26.3295 22.7063 26.5876 22.3592 26.7592 21.977C26.9308 21.5948 27.0122 21.1856 26.9985 20.7746C26.9848 20.3635 26.8763 19.9593 26.6796 19.5867C26.4829 19.2141 26.2022 18.881 25.8547 18.6079L22.51 15.6495C22.347 15.5054 22.1677 15.3765 21.9748 15.265C22.8779 13.8154 23.4465 12.1291 23.4465 10.3541C23.4465 4.64457 18.1953 0 11.74 0L11.7065 0.0295832ZM11.7065 2.98791C16.3557 2.98791 20.0683 6.27165 20.0683 10.3837C20.0683 12.3362 19.2656 14.1408 17.8608 15.472C17.8274 15.5016 17.7939 15.5312 17.7605 15.5608C17.6025 15.6769 17.4569 15.8056 17.3256 15.9454C15.854 17.1287 13.8471 17.8091 11.6731 17.8091C7.02391 17.8091 3.31127 14.5254 3.31127 10.4133C3.31127 6.30123 7.02391 3.01749 11.6731 3.01749L11.7065 2.98791Z" fill="white"/>
</svg>
