<svg width="18" height="31" viewBox="0 0 18 31" fill="none" xmlns="http://www.w3.org/2000/svg">
<path d="M0.682635 0C0.287425 0 0 0.309613 0 0.735331V30.2647C0 30.6904 0.287425 31 0.682635 31H17.3174C17.7126 31 18 30.6904 18 30.2647V0.735331C18 0.309613 17.7126 0 17.3174 0L0.682635 0ZM3.59281 3.87016H14.3713V23.221H3.59281V3.87016ZM8.98204 25.1561C9.98802 25.1561 10.7784 26.0075 10.7784 27.0911C10.7784 28.1748 9.98802 29.0262 8.98204 29.0262C7.97605 29.0262 7.18563 28.1748 7.18563 27.0911C7.18563 26.0075 7.97605 25.1561 8.98204 25.1561Z" fill="white"/>
</svg>
