<svg width="23" height="32" viewBox="0 0 23 32" fill="none" xmlns="http://www.w3.org/2000/svg">
<path d="M1.22602 0.0108183C0.844697 0.123939 0.503232 0.513283 0.27674 1.0932C0.0502484 1.67312 -0.0427178 2.3961 0.0182932 3.10311C0.0793043 3.81011 0.289295 4.44322 0.602069 4.86316C0.914844 5.2831 1.30478 5.45547 1.6861 5.34235H5.99939L6.25819 6.67523L7.43716 13.3396L8.61613 20.0041C8.73115 20.6972 9.21999 21.3369 9.59381 21.3369H19.6582C20.0607 21.3369 20.5208 20.6972 20.6358 20.0041L22.965 6.67523C23.08 5.98213 22.9075 5.34235 22.5049 5.34235H9.73758L8.64488 1.50365C8.5285 1.06305 8.34879 0.690538 8.12556 0.427144C7.90232 0.163751 7.64421 0.0196874 7.37965 0.0108183L1.62859 0.0108183C1.5425 -0.0036061 1.45588 -0.0036061 1.36979 0.0108183C1.31233 0.0044147 1.25472 0.0044147 1.19726 0.0108183L1.22602 0.0108183ZM10.3127 26.6685C9.50754 26.6685 8.87492 27.8414 8.87492 29.3342C8.87492 30.8271 9.50754 32 10.3127 32C11.1178 32 11.7505 30.8271 11.7505 29.3342C11.7505 27.8414 11.1178 26.6685 10.3127 26.6685ZM18.9393 26.6685C18.1341 26.6685 17.5015 27.8414 17.5015 29.3342C17.5015 30.8271 18.1341 32 18.9393 32C19.7444 32 20.377 30.8271 20.377 29.3342C20.377 27.8414 19.7444 26.6685 18.9393 26.6685Z" fill="white"/>
</svg>
