<svg width="19" height="29" viewBox="0 0 19 29" fill="none" xmlns="http://www.w3.org/2000/svg">
<path d="M0.720559 0C0.303393 0 0 0.289638 0 0.68789V28.3121C0 28.7104 0.303393 29 0.720559 29H18.2794C18.6966 29 19 28.7104 19 28.3121V0.68789C19 0.289638 18.6966 0 18.2794 0L0.720559 0ZM3.79241 3.62047H15.1697V21.7228H3.79241V3.62047ZM9.48104 23.5331C10.5429 23.5331 11.3772 24.3296 11.3772 25.3433C11.3772 26.3571 10.5429 27.1536 9.48104 27.1536C8.41916 27.1536 7.58483 26.3571 7.58483 25.3433C7.58483 24.3296 8.41916 23.5331 9.48104 23.5331Z" fill="white"/>
</svg>
