<svg width="20" height="36" viewBox="0 0 20 36" fill="none" xmlns="http://www.w3.org/2000/svg">
<path d="M0.758483 0C0.319361 0 0 0.351767 0 0.835447V34.3853C0 34.8689 0.319361 35.2207 0.758483 35.2207H19.2415C19.6806 35.2207 20 34.8689 20 34.3853V0.835447C20 0.351767 19.6806 0 19.2415 0L0.758483 0ZM3.99202 4.39709H15.9681V26.3825H3.99202V4.39709ZM9.98004 28.5811C11.0978 28.5811 11.976 29.5485 11.976 30.7796C11.976 32.0108 11.0978 32.9782 9.98004 32.9782C8.86228 32.9782 7.98403 32.0108 7.98403 30.7796C7.98403 29.5485 8.86228 28.5811 9.98004 28.5811Z" fill="white"/>
</svg>
