<svg width="18" height="33" viewBox="0 0 18 33" fill="none" xmlns="http://www.w3.org/2000/svg">
<path d="M0.67047 0C0.282303 0 0 0.329588 0 0.782772V32.2172C0 32.6704 0.282303 33 0.67047 33H17.0088C17.3969 33 17.6792 32.6704 17.6792 32.2172V0.782772C17.6792 0.329588 17.3969 0 17.0088 0L0.67047 0ZM3.52879 4.11985H14.1152V24.7191H3.52879V4.11985ZM8.82198 26.779C9.81004 26.779 10.5864 27.6854 10.5864 28.839C10.5864 29.9925 9.81004 30.8989 8.82198 30.8989C7.83392 30.8989 7.05758 29.9925 7.05758 28.839C7.05758 27.6854 7.83392 26.779 8.82198 26.779Z" fill="white"/>
</svg>
