<svg width="31" height="29" viewBox="0 0 31 29" fill="none" xmlns="http://www.w3.org/2000/svg">
<path d="M1.65246 0.00980409C1.1385 0.11232 0.678269 0.465163 0.372998 0.990712C0.0677261 1.51626 -0.0575761 2.17147 0.0246561 2.81219C0.106888 3.45291 0.389919 4.02667 0.811485 4.40724C1.23305 4.78781 1.75862 4.94402 2.27257 4.8415H8.08614L8.43495 6.04943L10.024 12.0891L11.613 18.1287C11.7681 18.7568 12.4269 19.3366 12.9308 19.3366H26.4958C27.0384 19.3366 27.6585 18.7568 27.8135 18.1287L30.9529 6.04943C31.1079 5.42131 30.8753 4.8415 30.3327 4.8415H13.1246L11.6518 1.36268C11.4949 0.963385 11.2527 0.6258 10.9518 0.3871C10.651 0.148399 10.3031 0.0178417 9.94648 0.00980408L2.19506 0.00980409C2.07902 -0.00326803 1.96228 -0.00326803 1.84624 0.00980408C1.7688 0.00400082 1.69114 0.00400082 1.6137 0.00980408L1.65246 0.00980409ZM13.8997 24.1683C12.8145 24.1683 11.9619 25.2313 11.9619 26.5842C11.9619 27.937 12.8145 29 13.8997 29C14.9849 29 15.8376 27.937 15.8376 26.5842C15.8376 25.2313 14.9849 24.1683 13.8997 24.1683ZM25.5269 24.1683C24.4417 24.1683 23.589 25.2313 23.589 26.5842C23.589 27.937 24.4417 29 25.5269 29C26.6121 29 27.4647 27.937 27.4647 26.5842C27.4647 25.2313 26.6121 24.1683 25.5269 24.1683Z" fill="white"/>
</svg>
