<svg width="31" height="22" viewBox="0 0 31 22" fill="none" xmlns="http://www.w3.org/2000/svg">
<path d="M13.4408 0.0271057C6.02917 0.0271057 0 4.2827 0 9.51409C0 14.7455 6.02917 19.0011 13.4408 19.0011C15.7066 19.0011 17.9339 18.6216 19.8156 17.8897C19.9663 18.0178 20.1334 18.1357 20.3148 18.2421L24.1551 20.9527C24.5097 21.2343 24.9421 21.4618 25.4257 21.6212C25.9094 21.7806 26.4341 21.8686 26.9677 21.8797C27.5013 21.8907 28.0324 21.8247 28.5285 21.6857C29.0247 21.5466 29.4753 21.3375 29.8527 21.0711C30.2302 20.8047 30.5265 20.4866 30.7235 20.1364C30.9205 19.7862 31.014 19.4113 30.9983 19.0347C30.9826 18.6581 30.858 18.2877 30.6322 17.9464C30.4063 17.605 30.084 17.2998 29.685 17.0495L25.8448 14.3389C25.6577 14.2068 25.4518 14.0887 25.2303 13.9865C26.2672 12.6584 26.92 11.1133 26.92 9.48699C26.92 4.25559 20.8909 0 13.4792 0L13.4408 0.0271057ZM13.4408 2.73767C18.7787 2.73767 23.0414 5.7464 23.0414 9.51409C23.0414 11.3031 22.1197 12.9565 20.5068 14.1763C20.4684 14.2034 20.43 14.2305 20.3916 14.2576C20.2103 14.364 20.0431 14.4819 19.8924 14.61C18.2027 15.6942 15.8986 16.3176 13.4024 16.3176C8.06449 16.3176 3.80183 13.3089 3.80183 9.5412C3.80183 5.77351 8.06449 2.76478 13.4024 2.76478L13.4408 2.73767Z" fill="white"/>
</svg>
