<svg width="32" height="29" viewBox="0 0 32 29" fill="none" xmlns="http://www.w3.org/2000/svg">
<path d="M13.8744 0.154918C6.22366 0.154918 0 5.77193 0 12.6769C0 19.5819 6.22366 25.1989 13.8744 25.1989C16.2132 25.1989 18.5124 24.6981 20.4548 23.7321C20.6104 23.9011 20.7829 24.0568 20.9702 24.1972L24.9343 27.7749C25.3003 28.1466 25.7467 28.4469 26.2459 28.6573C26.7452 28.8677 27.2869 28.9838 27.8376 28.9984C28.3884 29.0131 28.9367 28.9259 29.4488 28.7424C29.9609 28.5589 30.4261 28.2828 30.8157 27.9312C31.2053 27.5795 31.5112 27.1597 31.7146 26.6975C31.9179 26.2353 32.0145 25.7404 31.9983 25.2434C31.982 24.7463 31.8534 24.2574 31.6203 23.8068C31.3872 23.3562 31.0545 22.9533 30.6426 22.623L26.6785 19.0453C26.4854 18.8709 26.2728 18.7151 26.0442 18.5802C27.1145 16.8271 27.7884 14.7878 27.7884 12.6412C27.7884 5.73616 21.5648 0.119141 13.914 0.119141L13.8744 0.154918ZM13.8744 3.73263C19.3845 3.73263 23.7847 7.7039 23.7847 12.6769C23.7847 15.0382 22.8333 17.2206 21.1684 18.8306C21.1287 18.8664 21.0891 18.9022 21.0494 18.9379C20.8622 19.0784 20.6897 19.234 20.5341 19.403C18.7899 20.8341 16.4114 21.657 13.8348 21.657C8.32464 21.657 3.92447 17.6857 3.92447 12.7127C3.92447 7.73968 8.32464 3.76841 13.8348 3.76841L13.8744 3.73263Z" fill="white"/>
</svg>
