<svg width="25" height="20" viewBox="0 0 25 20" fill="none" xmlns="http://www.w3.org/2000/svg">
<path d="M10.8394 0.0247757C4.86223 0.0247757 0 3.91456 0 8.69627C0 13.478 4.86223 17.3678 10.8394 17.3678C12.6666 17.3678 14.4628 17.0209 15.9803 16.352C16.1019 16.469 16.2367 16.5768 16.3829 16.674L19.4799 19.1516C19.7659 19.409 20.1146 19.617 20.5046 19.7627C20.8947 19.9084 21.3179 19.9888 21.7481 19.9989C22.1784 20.009 22.6068 19.9487 23.0069 19.8216C23.407 19.6945 23.7704 19.5033 24.0748 19.2598C24.3792 19.0163 24.6181 18.7256 24.777 18.4055C24.9359 18.0854 25.0113 17.7428 24.9986 17.3985C24.986 17.0543 24.8855 16.7157 24.7034 16.4037C24.5212 16.0917 24.2613 15.8127 23.9395 15.5839L20.8426 13.1063C20.6917 12.9856 20.5256 12.8777 20.347 12.7843C21.1832 11.5703 21.7097 10.158 21.7097 8.67149C21.7097 3.88978 16.8475 0 10.8703 0L10.8394 0.0247757ZM10.8394 2.50235C15.1441 2.50235 18.5818 5.25245 18.5818 8.69627C18.5818 10.3315 17.8385 11.8428 16.5378 12.9577C16.5068 12.9825 16.4758 13.0072 16.4449 13.032C16.2986 13.1293 16.1638 13.2371 16.0423 13.3541C14.6796 14.3451 12.8214 14.915 10.8084 14.915C6.50362 14.915 3.06599 12.1649 3.06599 8.72104C3.06599 5.27722 6.50362 2.52712 10.8084 2.52712L10.8394 2.50235Z" fill="white"></path>
</svg>
