<svg width="32" height="33" viewBox="0 0 32 33" fill="none" xmlns="http://www.w3.org/2000/svg">
<path d="M1.70576 0.0111564C1.17523 0.127812 0.700149 0.529323 0.38503 1.12736C0.0699108 1.7254 -0.0594334 2.47098 0.0254515 3.20008C0.110336 3.92918 0.402497 4.58207 0.837662 5.01513C1.27283 5.4482 1.81535 5.62595 2.34588 5.5093H8.34698L8.70705 6.88383L10.3474 13.7565L11.9877 20.6292C12.1477 21.3439 12.8278 22.0037 13.3479 22.0037H27.3505C27.9106 22.0037 28.5507 21.3439 28.7107 20.6292L31.9513 6.88383C32.1114 6.16907 31.8713 5.5093 31.3112 5.5093H13.5479L12.0277 1.55064C11.8657 1.09627 11.6157 0.712118 11.3051 0.440493C10.9945 0.168868 10.6354 0.0203026 10.2673 0.0111564L2.26586 0.0111564C2.14609 -0.00371879 2.02558 -0.00371879 1.9058 0.0111564C1.82586 0.00455265 1.7457 0.00455265 1.66575 0.0111564L1.70576 0.0111564ZM14.3481 27.5019C13.2279 27.5019 12.3477 28.7115 12.3477 30.2509C12.3477 31.7904 13.2279 33 14.3481 33C15.4683 33 16.3485 31.7904 16.3485 30.2509C16.3485 28.7115 15.4683 27.5019 14.3481 27.5019ZM26.3503 27.5019C25.2301 27.5019 24.3499 28.7115 24.3499 30.2509C24.3499 31.7904 25.2301 33 26.3503 33C27.4705 33 28.3507 31.7904 28.3507 30.2509C28.3507 28.7115 27.4705 27.5019 26.3503 27.5019Z" fill="white"></path>
</svg>
