<svg width="23" height="37" viewBox="0 0 23 37" fill="none" xmlns="http://www.w3.org/2000/svg">
<path d="M0.872255 0C0.367265 0 0 0.361755 0 0.859168V35.3615C0 35.8589 0.367265 36.2207 0.872255 36.2207H22.1277C22.6327 36.2207 23 35.8589 23 35.3615V0.859168C23 0.361755 22.6327 0 22.1277 0L0.872255 0ZM4.59082 4.52194H18.3633V27.1316H4.59082V4.52194ZM11.477 29.3926C12.7625 29.3926 13.7725 30.3874 13.7725 31.6535C13.7725 32.9197 12.7625 33.9145 11.477 33.9145C10.1916 33.9145 9.18164 32.9197 9.18164 31.6535C9.18164 30.3874 10.1916 29.3926 11.477 29.3926Z" fill="white"></path>
</svg>
