<svg width="21" height="40" viewBox="0 0 21 40" fill="none" xmlns="http://www.w3.org/2000/svg">
<path d="M0.796407 0C0.335329 0 0 0.391717 0 0.930329V38.2904C0 38.829 0.335329 39.2207 0.796407 39.2207H20.2036C20.6647 39.2207 21 38.829 21 38.2904V0.930329C21 0.391717 20.6647 0 20.2036 0L0.796407 0ZM4.19162 4.89647H16.7665V29.3788H4.19162V4.89647ZM10.479 31.827C11.6527 31.827 12.5749 32.9043 12.5749 34.2753C12.5749 35.6463 11.6527 36.7235 10.479 36.7235C9.30539 36.7235 8.38323 35.6463 8.38323 34.2753C8.38323 32.9043 9.30539 31.827 10.479 31.827Z" fill="white"></path>
</svg>
