<svg width="20" height="34" viewBox="0 0 20 34" fill="none" xmlns="http://www.w3.org/2000/svg">
<path d="M0.758483 0C0.319361 0 0 0.339576 0 0.806492V33.1935C0 33.6604 0.319361 34 0.758483 34H19.2415C19.6806 34 20 33.6604 20 33.1935V0.806492C20 0.339576 19.6806 0 19.2415 0L0.758483 0ZM3.99202 4.24469H15.9681V25.4682H3.99202V4.24469ZM9.98004 27.5905C11.0978 27.5905 11.976 28.5243 11.976 29.7129C11.976 30.9014 11.0978 31.8352 9.98004 31.8352C8.86228 31.8352 7.98403 30.9014 7.98403 29.7129C7.98403 28.5243 8.86228 27.5905 9.98004 27.5905Z" fill="white"></path>
</svg>
