<svg width="23" height="18" viewBox="0 0 23 18" fill="none" xmlns="http://www.w3.org/2000/svg">
<path d="M9.97222 0.0222981C4.47325 0.0222981 0 3.5231 0 7.82664C0 12.1302 4.47325 15.631 9.97222 15.631C11.6533 15.631 13.3058 15.3188 14.7019 14.7168C14.8137 14.8221 14.9377 14.9191 15.0723 15.0066L17.9215 17.2365C18.1846 17.4681 18.5054 17.6553 18.8643 17.7864C19.2231 17.9175 19.6124 17.9899 20.0083 17.999C20.4042 18.0081 20.7982 17.9538 21.1663 17.8394C21.5344 17.7251 21.8688 17.553 22.1488 17.3338C22.4288 17.1147 22.6487 16.853 22.7949 16.565C22.941 16.2769 23.0104 15.9685 22.9987 15.6587C22.9871 15.3489 22.8946 15.0442 22.7271 14.7633C22.5595 14.4825 22.3204 14.2314 22.0244 14.0255L19.1752 11.7957C19.0364 11.6871 18.8836 11.5899 18.7193 11.5058C19.4886 10.4132 19.9729 9.14223 19.9729 7.80434C19.9729 3.50081 15.4997 0 10.0007 0L9.97222 0.0222981ZM9.97222 2.25211C13.9326 2.25211 17.0952 4.7272 17.0952 7.82664C17.0952 9.29832 16.4114 10.6585 15.2148 11.6619C15.1863 11.6842 15.1578 11.7065 15.1293 11.7288C14.9947 11.8163 14.8707 11.9134 14.7589 12.0187C13.5052 12.9106 11.7957 13.4235 9.94373 13.4235C5.98333 13.4235 2.82071 10.9484 2.82071 7.84894C2.82071 4.7495 5.98333 2.27441 9.94373 2.27441L9.97222 2.25211Z" fill="white"></path>
</svg>
