<svg width="18" height="35" viewBox="0 0 18 35" fill="none" xmlns="http://www.w3.org/2000/svg">
<path d="M0.67047 0C0.282303 0 0 0.34178 0 0.811727V33.409C0 33.8789 0.282303 34.2207 0.67047 34.2207H17.0088C17.3969 34.2207 17.6792 33.8789 17.6792 33.409V0.811727C17.6792 0.34178 17.3969 0 17.0088 0L0.67047 0ZM3.52879 4.27225H14.1152V25.6335H3.52879V4.27225ZM8.82198 27.7696C9.81004 27.7696 10.5864 28.7095 10.5864 29.9057C10.5864 31.102 9.81004 32.0419 8.82198 32.0419C7.83392 32.0419 7.05758 31.102 7.05758 29.9057C7.05758 28.7095 7.83392 27.7696 8.82198 27.7696Z" fill="white"></path>
</svg>
