<svg width="20" height="33" viewBox="0 0 20 33" fill="none" xmlns="http://www.w3.org/2000/svg">
<path d="M0.758483 0C0.319361 0 0 0.329588 0 0.782772V32.2172C0 32.6704 0.319361 33 0.758483 33H19.2415C19.6806 33 20 32.6704 20 32.2172V0.782772C20 0.329588 19.6806 0 19.2415 0L0.758483 0ZM3.99202 4.11985H15.9681V24.7191H3.99202V4.11985ZM9.98004 26.779C11.0978 26.779 11.976 27.6854 11.976 28.839C11.976 29.9925 11.0978 30.8989 9.98004 30.8989C8.86228 30.8989 7.98403 29.9925 7.98403 28.839C7.98403 27.6854 8.86228 26.779 9.98004 26.779Z" fill="white"></path>
</svg>
