<svg width="32" height="38" viewBox="0 0 32 38" fill="none" xmlns="http://www.w3.org/2000/svg">
<path d="M1.70576 0.0128467C1.17523 0.147178 0.700149 0.609524 0.38503 1.29817C0.0699108 1.98683 -0.0594334 2.84537 0.0254515 3.68494C0.110336 4.52451 0.402497 5.27633 0.837662 5.775C1.27283 6.27368 1.81535 6.47837 2.34588 6.34404H8.34698L8.70705 7.92684L10.3474 15.8408L11.9877 23.7548C12.1477 24.5779 12.8278 25.3376 13.3479 25.3376H27.3505C27.9106 25.3376 28.5507 24.5779 28.7107 23.7548L31.9513 7.92684C32.1114 7.10378 31.8713 6.34404 31.3112 6.34404H13.5479L12.0277 1.78558C11.8657 1.26237 11.6157 0.820014 11.3051 0.507234C10.9945 0.194454 10.6354 0.0233788 10.2673 0.0128467L2.26586 0.0128467C2.14609 -0.00428224 2.02558 -0.00428224 1.9058 0.0128467C1.82586 0.00524245 1.7457 0.00524245 1.66575 0.0128467L1.70576 0.0128467ZM14.3481 31.6688C13.2279 31.6688 12.3477 33.0617 12.3477 34.8344C12.3477 36.6071 13.2279 38 14.3481 38C15.4683 38 16.3485 36.6071 16.3485 34.8344C16.3485 33.0617 15.4683 31.6688 14.3481 31.6688ZM26.3503 31.6688C25.2301 31.6688 24.3499 33.0617 24.3499 34.8344C24.3499 36.6071 25.2301 38 26.3503 38C27.4705 38 28.3507 36.6071 28.3507 34.8344C28.3507 33.0617 27.4705 31.6688 26.3503 31.6688Z" fill="white"></path>
</svg>
