<svg width="26" height="22" viewBox="0 0 26 22" fill="none" xmlns="http://www.w3.org/2000/svg">
<path d="M11.2729 0.0271057C5.05672 0.0271057 0 4.2827 0 9.51409C0 14.7455 5.05672 19.0011 11.2729 19.0011C13.1732 19.0011 15.0413 18.6216 16.6195 17.8897C16.746 18.0178 16.8861 18.1357 17.0382 18.2421L20.2591 20.9527C20.5565 21.2343 20.9192 21.4618 21.3248 21.6212C21.7305 21.7806 22.1706 21.8686 22.6181 21.8797C23.0656 21.8907 23.5111 21.8247 23.9272 21.6857C24.3433 21.5466 24.7212 21.3375 25.0378 21.0711C25.3543 20.8047 25.6029 20.4866 25.7681 20.1364C25.9333 19.7862 26.0118 19.4113 25.9986 19.0347C25.9854 18.6581 25.8809 18.2877 25.6915 17.9464C25.5021 17.605 25.2317 17.2998 24.8971 17.0495L21.6763 14.3389C21.5194 14.2068 21.3467 14.0887 21.1609 13.9865C22.0306 12.6584 22.5781 11.1133 22.5781 9.48699C22.5781 4.25559 17.5214 0 11.3052 0L11.2729 0.0271057ZM11.2729 2.73767C15.7499 2.73767 19.325 5.7464 19.325 9.51409C19.325 11.3031 18.552 12.9565 17.1993 14.1763C17.1671 14.2034 17.1349 14.2305 17.1027 14.2576C16.9505 14.364 16.8104 14.4819 16.684 14.61C15.2668 15.6942 13.3343 16.3176 11.2407 16.3176C6.76377 16.3176 3.18863 13.3089 3.18863 9.5412C3.18863 5.77351 6.76377 2.76478 11.2407 2.76478L11.2729 2.73767Z" fill="white"></path>
</svg>
