<svg width="27" height="19" viewBox="0 0 27 19" fill="none" xmlns="http://www.w3.org/2000/svg">
<path d="M11.7065 0.0235369C5.25121 0.0235369 0 3.71883 0 8.26146C0 12.8041 5.25121 16.4994 11.7065 16.4994C13.6799 16.4994 15.6198 16.1699 17.2588 15.5344C17.39 15.6455 17.5356 15.748 17.6936 15.8403L21.0383 18.194C21.3471 18.4386 21.7237 18.6361 22.145 18.7745C22.5663 18.913 23.0233 18.9893 23.488 18.999C23.9527 19.0086 24.4153 18.9513 24.8474 18.8305C25.2795 18.7098 25.672 18.5282 26.0008 18.2968C26.3295 18.0655 26.5876 17.7893 26.7592 17.4852C26.9308 17.1812 27.0122 16.8556 26.9985 16.5286C26.9848 16.2016 26.8763 15.88 26.6796 15.5835C26.4829 15.2871 26.2022 15.0221 25.8547 14.8047L22.51 12.451C22.347 12.3363 22.1677 12.2338 21.9748 12.145C22.8779 10.9917 23.4465 9.65013 23.4465 8.23792C23.4465 3.6953 18.1953 0 11.74 0L11.7065 0.0235369ZM11.7065 2.37723C16.3557 2.37723 20.0683 4.98983 20.0683 8.26146C20.0683 9.81489 19.2656 11.2506 17.8608 12.3098C17.8274 12.3333 17.7939 12.3569 17.7605 12.3804C17.6025 12.4728 17.4569 12.5752 17.3256 12.6864C15.854 13.6279 13.8471 14.1692 11.6731 14.1692C7.02391 14.1692 3.31127 11.5566 3.31127 8.28499C3.31127 5.01336 7.02391 2.40076 11.6731 2.40076L11.7065 2.37723Z" fill="white"></path>
</svg>
