<svg width="34" height="27" viewBox="0 0 34 27" fill="none" xmlns="http://www.w3.org/2000/svg">
<path d="M1.81237 0.00912794C1.24868 0.104574 0.743908 0.433083 0.409094 0.922387C0.0742802 1.41169 -0.063148 2.02171 0.0270422 2.61825C0.117232 3.21478 0.427653 3.74897 0.890015 4.10329C1.35238 4.45762 1.92881 4.60305 2.4925 4.50761H8.86867L9.25124 5.63223L10.9941 11.2553L12.7369 16.8784C12.9069 17.4632 13.6295 18.003 14.1821 18.003H29.0599C29.655 18.003 30.3351 17.4632 30.5052 16.8784L33.9483 5.63223C34.1183 5.04742 33.8633 4.50761 33.2682 4.50761H14.3947L12.7794 1.2687C12.6073 0.896945 12.3417 0.582642 12.0117 0.360403C11.6817 0.138165 11.3001 0.0166112 10.909 0.00912794L2.40748 0.00912794C2.28022 -0.00304265 2.15217 -0.00304265 2.02491 0.00912794C1.93997 0.0037249 1.8548 0.0037249 1.76986 0.00912794L1.81237 0.00912794ZM15.2448 22.5015C14.0546 22.5015 13.1195 23.4912 13.1195 24.7508C13.1195 26.0103 14.0546 27 15.2448 27C16.4351 27 17.3702 26.0103 17.3702 24.7508C17.3702 23.4912 16.4351 22.5015 15.2448 22.5015ZM27.9972 22.5015C26.807 22.5015 25.8718 23.4912 25.8718 24.7508C25.8718 26.0103 26.807 27 27.9972 27C29.1874 27 30.1226 26.0103 30.1226 24.7508C30.1226 23.4912 29.1874 22.5015 27.9972 22.5015Z" fill="white"></path>
</svg>
