<svg width="33" height="30" viewBox="0 0 33 30" fill="none" xmlns="http://www.w3.org/2000/svg">
<path d="M1.75907 0.00989851C1.21196 0.113402 0.722029 0.469643 0.397062 1.00025C0.0720955 1.53086 -0.0612907 2.19238 0.0262468 2.83927C0.113784 3.48617 0.415075 4.06545 0.863839 4.44969C1.3126 4.83392 1.87208 4.99163 2.41919 4.88813H8.60783L8.97915 6.10769L10.6707 12.2055L12.3623 18.3033C12.5273 18.9374 13.2287 19.5228 13.765 19.5228H28.2052C28.7828 19.5228 29.4429 18.9374 29.6079 18.3033L32.9498 6.10769C33.1148 5.47352 32.8673 4.88813 32.2897 4.88813H13.9713L12.4035 1.3758C12.2365 0.972663 11.9787 0.631827 11.6584 0.390828C11.3381 0.149828 10.9678 0.0180135 10.5882 0.00989851L2.33667 0.00989851C2.21315 -0.0032995 2.08888 -0.0032995 1.96535 0.00989851C1.88291 0.00403935 1.80025 0.00403935 1.71781 0.00989851L1.75907 0.00989851ZM14.7965 24.4011C13.6413 24.4011 12.7336 25.4743 12.7336 26.8402C12.7336 28.2061 13.6413 29.2793 14.7965 29.2793C15.9517 29.2793 16.8593 28.2061 16.8593 26.8402C16.8593 25.4743 15.9517 24.4011 14.7965 24.4011ZM27.1737 24.4011C26.0185 24.4011 25.1109 25.4743 25.1109 26.8402C25.1109 28.2061 26.0185 29.2793 27.1737 29.2793C28.329 29.2793 29.2366 28.2061 29.2366 26.8402C29.2366 25.4743 28.329 24.4011 27.1737 24.4011Z" fill="white"></path>
</svg>
